<svg xmlns="http://www.w3.org/2000/svg" width="1000" height="240" fill="none" viewBox="0 0 1000 240"><rect width="1000" height="240" fill="#FEE11D"/><path fill="#323330" d="M177.393 117.477L163.867 119.918C163.411 117.216 162.37 115.182 160.742 113.814C159.147 112.447 157.064 111.764 154.492 111.764C151.074 111.764 148.34 112.952 146.289 115.328C144.271 117.672 143.262 121.611 143.262 127.145C143.262 133.297 144.287 137.643 146.338 140.182C148.421 142.721 151.204 143.99 154.688 143.99C157.292 143.99 159.424 143.258 161.084 141.793C162.744 140.296 163.916 137.74 164.6 134.127L178.076 136.422C176.676 142.607 173.991 147.278 170.02 150.436C166.048 153.593 160.726 155.172 154.053 155.172C146.468 155.172 140.413 152.779 135.889 147.994C131.396 143.209 129.15 136.585 129.15 128.121C129.15 119.56 131.413 112.903 135.938 108.15C140.462 103.365 146.582 100.973 154.297 100.973C160.612 100.973 165.625 102.34 169.336 105.074C173.079 107.776 175.765 111.91 177.393 117.477ZM184.668 127.34C184.668 122.783 185.791 118.372 188.037 114.107C190.283 109.843 193.457 106.588 197.559 104.342C201.693 102.096 206.299 100.973 211.377 100.973C219.222 100.973 225.651 103.528 230.664 108.639C235.677 113.717 238.184 120.146 238.184 127.926C238.184 135.771 235.645 142.281 230.566 147.457C225.521 152.6 219.157 155.172 211.475 155.172C206.722 155.172 202.181 154.098 197.852 151.949C193.555 149.801 190.283 146.66 188.037 142.525C185.791 138.359 184.668 133.297 184.668 127.34ZM198.73 128.072C198.73 133.215 199.951 137.154 202.393 139.889C204.834 142.623 207.845 143.99 211.426 143.99C215.007 143.99 218.001 142.623 220.41 139.889C222.852 137.154 224.072 133.183 224.072 127.975C224.072 122.896 222.852 118.99 220.41 116.256C218.001 113.521 215.007 112.154 211.426 112.154C207.845 112.154 204.834 113.521 202.393 116.256C199.951 118.99 198.73 122.929 198.73 128.072ZM247.949 102.145H260.596V109.225C265.12 103.723 270.508 100.973 276.758 100.973C280.078 100.973 282.959 101.656 285.4 103.023C287.842 104.391 289.844 106.458 291.406 109.225C293.685 106.458 296.143 104.391 298.779 103.023C301.416 101.656 304.232 100.973 307.227 100.973C311.035 100.973 314.258 101.754 316.895 103.316C319.531 104.846 321.501 107.109 322.803 110.104C323.747 112.317 324.219 115.898 324.219 120.846V154H310.498V124.361C310.498 119.218 310.026 115.898 309.082 114.4C307.812 112.447 305.859 111.471 303.223 111.471C301.302 111.471 299.495 112.057 297.803 113.229C296.11 114.4 294.889 116.126 294.141 118.404C293.392 120.65 293.018 124.215 293.018 129.098V154H279.297V125.582C279.297 120.536 279.053 117.281 278.564 115.816C278.076 114.352 277.311 113.261 276.27 112.545C275.26 111.829 273.877 111.471 272.119 111.471C270.003 111.471 268.099 112.04 266.406 113.18C264.714 114.319 263.493 115.963 262.744 118.111C262.028 120.26 261.67 123.824 261.67 128.805V154H247.949V102.145ZM336.914 102.145H349.561V109.225C354.085 103.723 359.473 100.973 365.723 100.973C369.043 100.973 371.924 101.656 374.365 103.023C376.807 104.391 378.809 106.458 380.371 109.225C382.65 106.458 385.107 104.391 387.744 103.023C390.381 101.656 393.197 100.973 396.191 100.973C400 100.973 403.223 101.754 405.859 103.316C408.496 104.846 410.465 107.109 411.768 110.104C412.712 112.317 413.184 115.898 413.184 120.846V154H399.463V124.361C399.463 119.218 398.991 115.898 398.047 114.4C396.777 112.447 394.824 111.471 392.188 111.471C390.267 111.471 388.46 112.057 386.768 113.229C385.075 114.4 383.854 116.126 383.105 118.404C382.357 120.65 381.982 124.215 381.982 129.098V154H368.262V125.582C368.262 120.536 368.018 117.281 367.529 115.816C367.041 114.352 366.276 113.261 365.234 112.545C364.225 111.829 362.842 111.471 361.084 111.471C358.968 111.471 357.064 112.04 355.371 113.18C353.678 114.319 352.458 115.963 351.709 118.111C350.993 120.26 350.635 123.824 350.635 128.805V154H336.914V102.145ZM437.158 117.965L424.707 115.719C426.107 110.706 428.516 106.995 431.934 104.586C435.352 102.177 440.43 100.973 447.168 100.973C453.288 100.973 457.845 101.705 460.84 103.17C463.835 104.602 465.934 106.441 467.139 108.688C468.376 110.901 468.994 114.986 468.994 120.943L468.848 136.959C468.848 141.516 469.059 144.885 469.482 147.066C469.938 149.215 470.768 151.526 471.973 154H458.398C458.04 153.089 457.601 151.738 457.08 149.947C456.852 149.133 456.689 148.596 456.592 148.336C454.248 150.615 451.742 152.324 449.072 153.463C446.403 154.602 443.555 155.172 440.527 155.172C435.189 155.172 430.973 153.723 427.881 150.826C424.821 147.929 423.291 144.267 423.291 139.84C423.291 136.91 423.991 134.306 425.391 132.027C426.79 129.716 428.743 127.958 431.25 126.754C433.789 125.517 437.435 124.443 442.188 123.531C448.6 122.327 453.044 121.204 455.518 120.162V118.795C455.518 116.158 454.867 114.286 453.564 113.18C452.262 112.04 449.805 111.471 446.191 111.471C443.75 111.471 441.846 111.959 440.479 112.936C439.111 113.88 438.005 115.556 437.158 117.965ZM455.518 129.098C453.76 129.684 450.977 130.383 447.168 131.197C443.359 132.011 440.869 132.809 439.697 133.59C437.907 134.859 437.012 136.471 437.012 138.424C437.012 140.344 437.728 142.005 439.16 143.404C440.592 144.804 442.415 145.504 444.629 145.504C447.103 145.504 449.463 144.69 451.709 143.062C453.369 141.826 454.46 140.312 454.98 138.521C455.339 137.35 455.518 135.12 455.518 131.832V129.098ZM506.348 102.145V113.082H496.973V133.98C496.973 138.212 497.054 140.686 497.217 141.402C497.412 142.086 497.819 142.656 498.438 143.111C499.089 143.567 499.87 143.795 500.781 143.795C502.051 143.795 503.89 143.355 506.299 142.477L507.471 153.121C504.281 154.488 500.667 155.172 496.631 155.172C494.157 155.172 491.927 154.765 489.941 153.951C487.956 153.105 486.491 152.031 485.547 150.729C484.635 149.394 484.001 147.604 483.643 145.357C483.35 143.762 483.203 140.54 483.203 135.689V113.082H476.904V102.145H483.203V91.8418L496.973 83.834V102.145H506.348ZM526.123 117.965L513.672 115.719C515.072 110.706 517.48 106.995 520.898 104.586C524.316 102.177 529.395 100.973 536.133 100.973C542.253 100.973 546.81 101.705 549.805 103.17C552.799 104.602 554.899 106.441 556.104 108.688C557.34 110.901 557.959 114.986 557.959 120.943L557.812 136.959C557.812 141.516 558.024 144.885 558.447 147.066C558.903 149.215 559.733 151.526 560.938 154H547.363C547.005 153.089 546.566 151.738 546.045 149.947C545.817 149.133 545.654 148.596 545.557 148.336C543.213 150.615 540.706 152.324 538.037 153.463C535.368 154.602 532.52 155.172 529.492 155.172C524.154 155.172 519.938 153.723 516.846 150.826C513.786 147.929 512.256 144.267 512.256 139.84C512.256 136.91 512.956 134.306 514.355 132.027C515.755 129.716 517.708 127.958 520.215 126.754C522.754 125.517 526.4 124.443 531.152 123.531C537.565 122.327 542.008 121.204 544.482 120.162V118.795C544.482 116.158 543.831 114.286 542.529 113.18C541.227 112.04 538.77 111.471 535.156 111.471C532.715 111.471 530.811 111.959 529.443 112.936C528.076 113.88 526.969 115.556 526.123 117.965ZM544.482 129.098C542.725 129.684 539.941 130.383 536.133 131.197C532.324 132.011 529.834 132.809 528.662 133.59C526.872 134.859 525.977 136.471 525.977 138.424C525.977 140.344 526.693 142.005 528.125 143.404C529.557 144.804 531.38 145.504 533.594 145.504C536.068 145.504 538.428 144.69 540.674 143.062C542.334 141.826 543.424 140.312 543.945 138.521C544.303 137.35 544.482 135.12 544.482 131.832V129.098ZM570.947 154V82.418H584.668V108.199C588.9 103.382 593.913 100.973 599.707 100.973C606.022 100.973 611.247 103.268 615.381 107.857C619.515 112.415 621.582 118.974 621.582 127.535C621.582 136.389 619.466 143.209 615.234 147.994C611.035 152.779 605.924 155.172 599.902 155.172C596.94 155.172 594.01 154.439 591.113 152.975C588.249 151.477 585.775 149.28 583.691 146.383V154H570.947ZM584.57 126.949C584.57 132.32 585.417 136.292 587.109 138.863C589.486 142.509 592.643 144.332 596.582 144.332C599.609 144.332 602.181 143.046 604.297 140.475C606.445 137.87 607.52 133.785 607.52 128.219C607.52 122.294 606.445 118.03 604.297 115.426C602.148 112.789 599.398 111.471 596.045 111.471C592.757 111.471 590.023 112.757 587.842 115.328C585.661 117.867 584.57 121.741 584.57 126.949ZM632.666 154V82.418H646.387V154H632.666ZM690.527 137.496L704.199 139.791C702.441 144.804 699.658 148.629 695.85 151.266C692.074 153.87 687.337 155.172 681.641 155.172C672.624 155.172 665.951 152.226 661.621 146.334C658.203 141.614 656.494 135.657 656.494 128.463C656.494 119.869 658.74 113.147 663.232 108.297C667.725 103.414 673.405 100.973 680.273 100.973C687.988 100.973 694.076 103.528 698.535 108.639C702.995 113.717 705.127 121.513 704.932 132.027H670.557C670.654 136.096 671.761 139.27 673.877 141.549C675.993 143.795 678.63 144.918 681.787 144.918C683.936 144.918 685.742 144.332 687.207 143.16C688.672 141.988 689.779 140.1 690.527 137.496ZM691.309 123.629C691.211 119.658 690.186 116.646 688.232 114.596C686.279 112.512 683.903 111.471 681.104 111.471C678.109 111.471 675.635 112.561 673.682 114.742C671.729 116.923 670.768 119.885 670.801 123.629H691.309ZM711.328 139.205L725.098 137.105C725.684 139.775 726.872 141.809 728.662 143.209C730.452 144.576 732.959 145.26 736.182 145.26C739.73 145.26 742.399 144.609 744.189 143.307C745.394 142.395 745.996 141.174 745.996 139.645C745.996 138.603 745.671 137.74 745.02 137.057C744.336 136.406 742.806 135.803 740.43 135.25C729.362 132.809 722.347 130.579 719.385 128.561C715.283 125.761 713.232 121.871 713.232 116.891C713.232 112.398 715.007 108.622 718.555 105.562C722.103 102.503 727.604 100.973 735.059 100.973C742.155 100.973 747.428 102.128 750.879 104.439C754.329 106.751 756.706 110.169 758.008 114.693L745.068 117.086C744.515 115.068 743.457 113.521 741.895 112.447C740.365 111.373 738.167 110.836 735.303 110.836C731.689 110.836 729.102 111.34 727.539 112.35C726.497 113.066 725.977 113.993 725.977 115.133C725.977 116.109 726.432 116.939 727.344 117.623C728.581 118.535 732.845 119.82 740.137 121.48C747.461 123.141 752.572 125.175 755.469 127.584C758.333 130.025 759.766 133.427 759.766 137.789C759.766 142.542 757.78 146.627 753.809 150.045C749.837 153.463 743.962 155.172 736.182 155.172C729.118 155.172 723.519 153.74 719.385 150.875C715.283 148.01 712.598 144.12 711.328 139.205ZM771.826 154V140.279H785.547V154H771.826ZM799.365 95.1133V82.418H813.086V95.1133H799.365ZM813.086 102.145V152.389C813.086 158.997 812.646 163.652 811.768 166.354C810.921 169.088 809.261 171.22 806.787 172.75C804.346 174.28 801.221 175.045 797.412 175.045C796.045 175.045 794.564 174.915 792.969 174.654C791.406 174.426 789.714 174.068 787.891 173.58L790.283 161.861C790.934 161.992 791.553 162.089 792.139 162.154C792.692 162.252 793.213 162.301 793.701 162.301C795.101 162.301 796.24 161.992 797.119 161.373C798.031 160.787 798.633 160.071 798.926 159.225C799.219 158.378 799.365 155.839 799.365 151.607V102.145H813.086ZM822.656 139.205L836.426 137.105C837.012 139.775 838.2 141.809 839.99 143.209C841.781 144.576 844.287 145.26 847.51 145.26C851.058 145.26 853.727 144.609 855.518 143.307C856.722 142.395 857.324 141.174 857.324 139.645C857.324 138.603 856.999 137.74 856.348 137.057C855.664 136.406 854.134 135.803 851.758 135.25C840.69 132.809 833.675 130.579 830.713 128.561C826.611 125.761 824.561 121.871 824.561 116.891C824.561 112.398 826.335 108.622 829.883 105.562C833.431 102.503 838.932 100.973 846.387 100.973C853.483 100.973 858.757 102.128 862.207 104.439C865.658 106.751 868.034 110.169 869.336 114.693L856.396 117.086C855.843 115.068 854.785 113.521 853.223 112.447C851.693 111.373 849.495 110.836 846.631 110.836C843.018 110.836 840.43 111.34 838.867 112.35C837.826 113.066 837.305 113.993 837.305 115.133C837.305 116.109 837.76 116.939 838.672 117.623C839.909 118.535 844.173 119.82 851.465 121.48C858.789 123.141 863.9 125.175 866.797 127.584C869.661 130.025 871.094 133.427 871.094 137.789C871.094 142.542 869.108 146.627 865.137 150.045C861.165 153.463 855.29 155.172 847.51 155.172C840.446 155.172 834.847 153.74 830.713 150.875C826.611 148.01 823.926 144.12 822.656 139.205Z"/></svg>